<?xml version="1.0" encoding="UTF-8"?>
<svg version="1.1" xmlns="http://www.w3.org/2000/svg" width="512" height="512">
<path d="M0 0 C1.63309093 -0.00417981 3.26617895 -0.00966086 4.89926165 -0.01631981 C9.35827209 -0.03070842 13.81709665 -0.0265504 18.27611697 -0.019153 C23.0962963 -0.01440722 27.91643623 -0.02694366 32.73660278 -0.03717041 C42.16887874 -0.05433651 51.60108802 -0.05520291 61.03337554 -0.04995751 C68.70316225 -0.04591028 76.3729293 -0.04736593 84.04271507 -0.05270576 C85.68234457 -0.0538284 85.68234457 -0.0538284 87.35509789 -0.05497371 C89.57596551 -0.05650525 91.79683314 -0.05804359 94.01770075 -0.05958868 C114.82887802 -0.07330595 135.64001767 -0.06788159 156.45119407 -0.05640347 C175.47132249 -0.04647324 194.4913536 -0.05940951 213.51146702 -0.08333766 C233.06227401 -0.10774727 252.61303572 -0.11733186 272.16385764 -0.11068493 C283.13174659 -0.10719668 294.09956073 -0.10939867 305.06743813 -0.12693596 C314.40469083 -0.14168127 323.74181605 -0.142263 333.07906631 -0.12486505 C337.83843908 -0.11637164 342.59758433 -0.11416479 347.35694504 -0.1295166 C351.7225472 -0.14342339 356.08772823 -0.13852421 360.4533064 -0.11927737 C362.02386249 -0.11553531 363.59445281 -0.11838696 365.16497824 -0.12888902 C385.88154904 -0.25745587 403.33778018 5.91590528 418.62419128 20.38768005 C423.83434634 25.72855585 427.53892735 31.67153485 430.93669128 38.26268005 C431.42528625 39.19769348 431.42528625 39.19769348 431.92375183 40.15159607 C437.3747468 51.2761624 438.06296219 62.58622921 438.01187134 74.76348877 C438.01605115 76.3965797 438.02153219 78.02966772 438.02819115 79.66275042 C438.04257976 84.12176085 438.03842174 88.58058542 438.03102434 93.03960574 C438.02627856 97.85978507 438.038815 102.679925 438.04904175 107.50009155 C438.06620785 116.93236751 438.06707425 126.36457679 438.06182884 135.79686431 C438.05778162 143.46665102 438.05923727 151.13641807 438.0645771 158.80620384 C438.06532552 159.89929017 438.06607395 160.9923765 438.06684505 162.11858666 C438.06837658 164.33945428 438.06991493 166.56032191 438.07146002 168.78118952 C438.08517729 189.59236679 438.07975293 210.40350644 438.0682748 231.21468284 C438.05834458 250.23481126 438.07128085 269.25484237 438.095209 288.27495579 C438.11961861 307.82576278 438.1292032 327.37652449 438.12255627 346.92734641 C438.11906802 357.89523536 438.12127001 368.8630495 438.1388073 379.8309269 C438.15355261 389.1681796 438.15413434 398.50530482 438.13673639 407.84255508 C438.12824298 412.60192785 438.12603613 417.3610731 438.14138794 422.12043381 C438.15529472 426.48603597 438.15039554 430.851217 438.1311487 435.21679517 C438.12740664 436.78735126 438.1302583 438.35794158 438.14076035 439.92846701 C438.26932721 460.64503781 432.09596606 478.10126895 417.62419128 493.38768005 C412.28331549 498.59783511 406.34033649 502.30241612 399.74919128 505.70018005 C398.81417786 506.18877502 398.81417786 506.18877502 397.86027527 506.6872406 C386.72757309 512.14222211 375.41395821 512.82522518 363.22819519 512.76863098 C361.59296673 512.77209343 359.9577406 512.77686192 358.3225193 512.78281271 C353.85771126 512.79527176 349.39309696 512.78917568 344.92828846 512.77985406 C340.1020359 512.77304292 335.27581574 512.78355501 330.4495697 512.79179382 C321.00626413 512.80511136 311.56303023 512.80226224 302.11972189 512.7935559 C294.44275927 512.78677197 286.76581669 512.7858657 279.08885193 512.78912735 C277.99489943 512.78958705 276.90094693 512.79004675 275.77384436 512.79052038 C273.55127954 512.79147958 271.32871472 512.79245222 269.10614991 512.79343815 C248.2807542 512.80198625 227.45539814 512.79216702 206.63000894 512.77603705 C188.77323215 512.76263441 170.91651389 512.76496266 153.05973816 512.77879333 C132.30723546 512.79485939 111.55476749 512.80116233 90.80225945 512.79195654 C88.58801652 512.79100093 86.37377358 512.79005782 84.15953064 512.78912735 C82.52549174 512.78843311 82.52549174 512.78843311 80.85844195 512.78772485 C73.19353755 512.78513804 65.52865525 512.78949929 57.86375427 512.79656601 C48.51874549 512.8049926 39.17381228 512.80267649 29.82881212 512.78672378 C25.06377283 512.77885668 20.29885938 512.7757228 15.53382111 512.78567123 C11.16658605 512.79465103 6.79959279 512.78963148 2.43237948 512.77373858 C0.85784033 512.77040464 -0.71671952 512.77205339 -2.29124522 512.77936594 C-14.48539858 512.83162731 -25.50927746 511.4404312 -36.43830872 505.76268005 C-37.11313293 505.41640564 -37.78795715 505.07013123 -38.48323059 504.71336365 C-51.68648988 497.69402861 -60.89078029 487.69885124 -67.68830872 474.51268005 C-68.17690369 473.57766663 -68.17690369 473.57766663 -68.67536926 472.62376404 C-74.12636424 461.4991977 -74.81457962 450.1891309 -74.76348877 438.01187134 C-74.76766858 436.37878041 -74.77314963 434.74569239 -74.77980858 433.11260968 C-74.79419719 428.65359925 -74.79003917 424.19477469 -74.78264177 419.73575437 C-74.77789599 414.91557504 -74.79043243 410.0954351 -74.80065918 405.27526855 C-74.81782528 395.8429926 -74.81869168 386.41078332 -74.81344628 376.9784958 C-74.80939905 369.30870909 -74.8108547 361.63894204 -74.81619453 353.96915627 C-74.81694296 352.87606994 -74.81769138 351.78298361 -74.81846248 350.65677345 C-74.81999402 348.43590582 -74.82153236 346.2150382 -74.82307745 343.99417058 C-74.83679472 323.18299331 -74.83137036 302.37185367 -74.81989224 281.56067727 C-74.80996201 262.54054885 -74.82289828 243.52051773 -74.84682643 224.50040432 C-74.87123604 204.94959733 -74.88082063 185.39883562 -74.8741737 165.8480137 C-74.87068545 154.88012475 -74.87288744 143.91231061 -74.89042473 132.94443321 C-74.90517004 123.60718051 -74.90575177 114.27005529 -74.88835382 104.93280502 C-74.87986041 100.17343226 -74.87765356 95.41428701 -74.89300537 90.6549263 C-74.90691216 86.28932414 -74.90201297 81.92414311 -74.88276614 77.55856494 C-74.87902408 75.98800885 -74.88187573 74.41741853 -74.89237779 72.84689309 C-75.02094464 52.1303223 -68.84758349 34.67409116 -54.37580872 19.38768005 C-49.03493292 14.17752499 -43.09195392 10.47294399 -36.50080872 7.07518005 C-35.87746643 6.74945007 -35.25412415 6.42372009 -34.6118927 6.08811951 C-23.48732637 0.63712453 -12.17725956 -0.05109085 0 0 Z M111.62419128 119.38768005 C111.01059753 119.68368103 110.39700378 119.97968201 109.76481628 120.28465271 C72.42369195 138.4354986 43.369911 171.30338596 29.77262878 210.53611755 C28.17753162 215.43598711 26.8491689 220.38385117 25.62419128 225.38768005 C25.44775085 226.07201111 25.27131042 226.75634216 25.08952332 227.46141052 C15.9815942 264.15490096 23.94057672 306.2876172 42.87663269 338.51951599 C47.8582797 346.57077902 53.45161952 354.20920771 59.62419128 361.38768005 C60.85395691 362.81853943 60.85395691 362.81853943 62.10856628 364.27830505 C78.92425781 383.42256066 100.62295967 397.75025628 124.31169128 407.01268005 C125.2822345 407.40278259 125.2822345 407.40278259 126.27238464 407.80076599 C130.42014856 409.33315093 133.40928859 409.83784238 137.62419128 408.38768005 C140.32942451 405.68674718 141.52582862 404.06738723 142.07829285 400.2497406 C142.04687195 398.52944641 142.04687195 398.52944641 142.01481628 396.7743988 C141.99548035 394.90364685 141.99548035 394.90364685 141.97575378 392.99510193 C141.94223816 391.70152771 141.90872253 390.40795349 141.87419128 389.07518005 C141.85614441 387.7622699 141.83809753 386.44935974 141.81950378 385.09666443 C141.77241914 381.85959517 141.7066617 378.62400953 141.62419128 375.38768005 C140.14692566 375.62744568 140.14692566 375.62744568 138.63981628 375.87205505 C123.5384751 378.01204411 109.1785444 376.67567935 96.62419128 367.38768005 C91.18442827 362.89892456 88.65809992 356.58045231 85.65055847 350.3747406 C81.23140005 341.36573114 76.4910817 335.36239153 67.76091003 330.1884613 C65.02983113 327.88676592 64.48720315 325.79681533 63.62419128 322.38768005 C73.99375243 321.65628467 81.16244825 322.83622753 89.24919128 329.57518005 C93.51060107 334.62158638 97.63794787 339.77155789 101.63200378 345.0322113 C106.58590398 350.88946977 113.57222384 353.95109027 121.15544128 354.60643005 C128.41206058 354.8510352 135.09412849 353.65271145 141.62419128 350.38768005 C142.31712042 348.51560681 142.92969124 346.61341781 143.49919128 344.70018005 C145.01332296 339.90732714 146.72074817 336.43176154 149.62419128 332.38768005 C149.62419128 331.39768005 149.62419128 330.40768005 149.62419128 329.38768005 C148.34286316 329.15693787 147.06153503 328.92619568 145.74137878 328.6884613 C124.62020889 324.76203746 104.6086767 318.96836091 91.58903503 300.5009613 C87.46188427 293.79762726 84.69151312 286.96786011 82.62419128 279.38768005 C82.41020691 278.63744568 82.19622253 277.8872113 81.97575378 277.11424255 C77.63928422 259.20273782 78.47244325 238.98760332 86.62419128 222.38768005 C91.43436078 214.57751056 91.43436078 214.57751056 94.62419128 211.38768005 C94.47981628 210.12955505 94.33544128 208.87143005 94.18669128 207.57518005 C92.93774637 196.01827645 92.1282884 183.49388052 95.96794128 172.3837738 C96.78035182 170.26289226 96.78035182 170.26289226 96.62419128 167.38768005 C108.3103684 168.47063146 118.44254474 170.65868307 128.67497253 176.7509613 C129.37243591 177.16402527 130.06989929 177.57708923 130.78849792 178.00267029 C132.1423604 178.82056614 133.4826729 179.66148895 134.80558777 180.52854919 C140.02515269 183.731235 143.71787056 183.61723312 149.62419128 182.38768005 C150.58067566 182.22268005 151.53716003 182.05768005 152.52262878 181.88768005 C153.33989441 181.72268005 154.15716003 181.55768005 154.99919128 181.38768005 C174.42632751 177.80688741 195.02197805 178.34926672 214.31169128 182.57518005 C221.64868069 184.09190223 225.61992364 181.93277217 231.77653503 178.0790863 C242.71902443 171.57963787 253.0289349 168.36845821 265.62419128 167.38768005 C271.287155 190.14065925 271.287155 190.14065925 268.88200378 200.62205505 C267.29173528 207.07132991 267.29173528 207.07132991 269.09684753 213.23143005 C270.50667544 215.06552392 271.95886342 216.86771793 273.44841003 218.63768005 C281.17078525 228.39809684 283.01568596 241.35140057 282.93669128 253.45018005 C282.93177673 254.35703552 282.92686218 255.26389099 282.92179871 256.19822693 C282.60526531 274.72922821 278.34448939 293.96352399 265.30387878 307.8603363 C250.45786751 321.79883278 232.30879587 326.54711686 212.62419128 329.38768005 C213.78958092 332.41040942 215.05276641 335.2453876 216.62419128 338.07518005 C220.84746763 346.52750624 220.91471488 355.57879228 220.93278503 364.8525238 C220.95791189 367.22166724 220.98331032 369.59080781 221.00895691 371.95994568 C221.03784003 375.66216987 221.06188807 379.36434475 221.08049011 383.06663513 C221.10204578 386.66216811 221.1414356 390.25717218 221.18278503 393.8525238 C221.18295876 395.52120766 221.18295876 395.52120766 221.18313599 397.22360229 C221.20314415 398.76649681 221.20314415 398.76649681 221.22355652 400.34056091 C221.22862717 401.24527634 221.23369781 402.14999176 221.23892212 403.0821228 C221.70199887 405.85330219 222.40230489 406.71719057 224.62419128 408.38768005 C229.65082812 409.93599942 233.28588762 408.86140456 237.99919128 406.95018005 C238.69327087 406.67722107 239.38735046 406.40426208 240.10246277 406.12303162 C264.53036691 396.28910018 287.95075407 380.99888648 304.62419128 360.38768005 C305.39505066 359.44279724 306.16591003 358.49791443 306.96012878 357.5243988 C334.06515311 323.67344607 344.28679744 282.91187854 340.31071472 240.00486755 C335.31627161 200.04932267 313.05106805 162.31866188 281.37297058 137.66355896 C233.00698425 100.70317091 166.71467699 92.11847075 111.62419128 119.38768005 Z " fill="#000000" transform="translate(74.37580871582031,-0.3876800537109375)"/>
</svg>
