<?xml version="1.0" encoding="UTF-8"?>
<svg version="1.1" xmlns="http://www.w3.org/2000/svg" width="512" height="512">
<path d="M0 0 C1.10384537 -0.00671722 2.20769073 -0.01343445 3.34498596 -0.02035522 C6.96652826 -0.03923537 10.58788432 -0.04325412 14.20947266 -0.04541016 C16.7447619 -0.05184405 19.28005041 -0.05857284 21.81533813 -0.06558228 C27.11926289 -0.0775294 32.42311918 -0.08135179 37.72705078 -0.08007812 C43.82902443 -0.07887721 49.93064413 -0.09998405 56.03252828 -0.13156545 C61.93784927 -0.16102294 67.84306371 -0.16805014 73.74846268 -0.16685867 C76.24495516 -0.16920828 78.74145067 -0.17799538 81.23789597 -0.19352341 C84.73831821 -0.21326183 88.23784254 -0.2073142 91.73828125 -0.1953125 C92.75476242 -0.20655151 93.77124359 -0.21779053 94.81852722 -0.22937012 C107.69219598 -0.11799544 119.20716901 4.71945214 128.75244141 13.32177734 C138.69175353 23.73259384 142.04358191 36.72555853 145.35400391 50.28662109 C145.78545588 52.00982512 146.21812259 53.7327254 146.65193176 55.45533752 C147.78274969 59.95990119 148.8965857 64.46849415 150.00689697 68.97814941 C151.13323377 73.53876575 152.27688221 78.09503467 153.41845703 82.65185547 C167.52237733 139.06411106 167.52237733 139.06411106 155.60791016 159.40380859 C150.71398019 166.10124237 144.57789919 170.94212114 137.87353516 175.72802734 C129.52148622 181.7712106 121.31401072 187.98091209 113.17773438 194.31176758 C112.33355957 194.96218018 111.48938477 195.61259277 110.61962891 196.28271484 C109.87124756 196.8639209 109.12286621 197.44512695 108.35180664 198.04394531 C106.49853516 199.29052734 106.49853516 199.29052734 104.49853516 199.29052734 C116.5896328 221.9212101 131.00774628 242.64252761 147.49853516 262.29052734 C148.28357422 263.26119141 149.06861328 264.23185547 149.87744141 265.23193359 C156.63560944 273.4738803 164.04835063 281.05542896 171.56103516 288.60302734 C172.06764679 289.11481537 172.57425842 289.62660339 173.09622192 290.15390015 C179.17082872 296.27736996 185.35534872 302.00957359 192.12133789 307.37255859 C194.33829672 309.16124387 196.42481661 311.02671676 198.49853516 312.97802734 C215.3127152 328.05073874 235.11477175 339.86341791 254.49853516 351.29052734 C258.76822945 347.23551042 262.3485612 342.82787712 265.93603516 338.16552734 C266.5400415 337.38653076 267.14404785 336.60753418 267.76635742 335.80493164 C270.99434663 331.62043936 274.16674003 327.4011001 277.27978516 323.13037109 C277.89281494 322.28941895 278.50584473 321.4484668 279.13745117 320.58203125 C280.3030152 318.97552423 281.46274458 317.36476128 282.61547852 315.74902344 C290.66121466 304.62991978 300.58691045 295.83020098 314.38192749 292.78562927 C325.40807715 291.03402351 335.68415618 292.53569427 346.39697266 295.28662109 C348.35563572 295.76698577 350.31429941 296.24734787 352.27299309 296.7275877 C354.31170543 297.23083832 356.34814815 297.74245278 358.38415527 298.25653076 C362.46007414 299.28450714 366.5433491 300.28059815 370.62841797 301.27148438 C376.75196252 302.75996554 382.8682834 304.27546686 388.97987747 305.8122654 C392.42614359 306.67872357 395.87362407 307.53938243 399.32470703 308.38647461 C402.76659651 309.23138956 406.20471671 310.09030097 409.64069748 310.95892143 C411.52589872 311.43206145 413.41446444 311.89173377 415.3031311 312.35084534 C429.72276016 316.03497139 442.67379503 322.25093665 450.87353516 335.16552734 C455.92238962 344.6580119 458.09586481 352.88667905 458.01611328 363.63989258 C458.0266272 365.41292252 458.0266272 365.41292252 458.03735352 367.22177124 C458.0548425 371.09779924 458.04334146 374.9730867 458.02978516 378.84912109 C458.03067831 381.56234824 458.03636257 384.27556259 458.04138184 386.98878479 C458.04863253 392.66342057 458.03913987 398.33784724 458.02001953 404.01245117 C457.99826604 410.54333668 458.0053011 417.07372224 458.02732515 423.6045956 C458.04556585 429.24236866 458.04799517 434.87999253 458.03757048 440.51778561 C458.03138134 443.87162064 458.03197619 447.22503591 458.04371643 450.57888603 C458.05394882 454.32351663 458.03828534 458.06720649 458.01611328 461.81176758 C458.02421021 462.90148361 458.03230713 463.99119965 458.04064941 465.11393738 C457.88869915 479.0643279 452.77207054 489.48413222 443.36572266 499.57958984 C431.59450993 510.84451385 417.55372965 512.94040792 401.92431641 512.66552734 C338.09577895 510.22499881 274.08358141 488.50372128 217.49853516 460.29052734 C216.58475098 459.83564941 215.6709668 459.38077148 214.72949219 458.91210938 C182.97242372 442.9841093 152.24148983 423.11448197 125.38916016 399.78271484 C122.72435316 397.48521909 120.00439799 395.28956522 117.24853516 393.10302734 C105.61794232 383.60695082 95.00194555 372.87534465 84.37353516 362.29052734 C83.59236328 361.51402832 82.81119141 360.7375293 82.00634766 359.9375 C77.29802025 355.21598116 72.84144537 350.34791213 68.49853516 345.29052734 C67.47693375 344.13395501 66.45354174 342.97896144 65.42822266 341.82568359 C57.32576406 332.64473627 49.79078812 323.12455117 42.49853516 313.29052734 C41.96228516 312.56994141 41.42603516 311.84935547 40.87353516 311.10693359 C-13.00849686 238.44390484 -54.25955575 142.90785944 -54.93896484 50.97802734 C-54.94911621 50.03644775 -54.95926758 49.09486816 -54.96972656 48.12475586 C-54.80295432 35.14823087 -49.78531444 23.55997026 -41.00146484 14.04052734 C-29.40215897 3.0700995 -15.55816727 -0.01381781 0 0 Z " fill="#000000" transform="translate(54.50146484375,-0.29052734375)"/>
<path d="M0 0 C7.49658602 -0.10365743 14.99276571 -0.18498047 22.4899292 -0.23214722 C24.84423801 -0.24966741 27.1985067 -0.27395937 29.55267334 -0.3052063 C32.84849149 -0.34694817 36.14346557 -0.3626912 39.43951416 -0.37182617 C40.40491623 -0.38928894 41.3703183 -0.40675171 42.36497498 -0.42474365 C48.4292562 -0.40544237 53.13720186 0.40195062 58.09967041 4.05395508 C63.20760226 9.41978552 64.13150525 16.9225919 65.81451416 23.93676758 C66.15450196 25.31543252 66.4955516 26.69383599 66.83760071 28.07199097 C67.73547118 31.70153995 68.61920718 35.33438468 69.49987793 38.96813965 C70.38102492 42.59382477 71.27489893 46.21636321 72.16802979 49.83911133 C73.37309348 54.73089398 74.57274327 59.62393474 75.76495457 64.51886559 C77.05165051 69.80045201 78.35157959 75.07767174 79.6975708 80.34448242 C79.93266861 81.266716 80.16776642 82.18894958 80.4099884 83.13912964 C80.83003241 84.77933672 81.25397702 86.41855323 81.68302917 88.056427 C83.42567046 94.86930233 84.95375503 101.41632167 81.66217041 107.87426758 C78.47537399 112.33479354 73.90483302 115.33822511 69.53717041 118.55395508 C68.60695068 119.25029053 67.67673096 119.94662598 66.71832275 120.6640625 C63.85300254 122.80443096 60.97762403 124.9306141 58.09967041 127.05395508 C56.4055458 128.31031153 54.71152995 129.56681465 53.01763916 130.82348633 C46.93690292 135.32263085 40.85463507 139.81691695 34.68560791 144.19458008 C33.99450928 144.68917725 33.30341064 145.18377441 32.59136963 145.69335938 C31.30966824 146.60915214 30.02260414 147.51750936 28.72906494 148.41650391 C24.40734524 151.5142058 21.88983936 154.29290497 20.41998291 159.42895508 C19.56617933 170.90407521 26.52227366 180.52597581 32.09967041 190.05395508 C32.55873779 190.84672852 33.01780518 191.63950195 33.49078369 192.45629883 C49.31489137 219.6131833 68.34445867 244.54796729 89.71148682 267.5480957 C91.13870602 269.09629973 92.54869357 270.65874376 93.95513916 272.22583008 C98.36164028 277.12362465 102.76835587 281.85987102 107.83013916 286.09692383 C110.26925328 288.20018747 112.59755244 290.39645096 114.93463135 292.61157227 C121.79675472 299.09932994 128.91438194 305.05628843 136.42779541 310.77172852 C138.00998546 311.98517217 139.57117837 313.22585188 141.13092041 314.46801758 C154.93162968 325.38765094 169.80159581 335.11908443 185.06256104 343.87524414 C186.55465429 344.73859819 188.03933562 345.61479642 189.51959229 346.49829102 C192.13813024 348.05975929 194.772992 349.59018028 197.41217041 351.11645508 C198.22436035 351.60654053 199.03655029 352.09662598 199.87335205 352.6015625 C205.6697947 355.88949282 210.45014355 357.09061689 217.09967041 356.05395508 C221.85705289 354.36477969 224.33675574 352.06063096 227.41217041 348.11645508 C228.19076416 347.12516602 228.96935791 346.13387695 229.77154541 345.11254883 C232.66066732 341.31694068 235.54038024 337.51602234 238.38482666 333.68676758 C242.60680011 328.0148731 246.91547912 322.40791456 251.21270752 316.79296875 C254.15266998 312.94653233 257.08771699 309.10174267 259.91998291 305.17504883 C260.68052979 304.12446289 261.44107666 303.07387695 262.22467041 301.99145508 C262.84599854 301.11360352 263.46732666 300.23575195 264.10748291 299.33129883 C267.23158011 295.76002693 269.72969973 293.35690592 274.61656189 292.73222351 C284.98653947 292.51724959 294.35863708 294.93121573 304.31451416 297.50708008 C306.14218465 297.9693367 307.97011655 298.43056084 309.79829407 298.89080811 C313.60550839 299.8528802 317.40979578 300.82556514 321.21221924 301.80639648 C326.07514352 303.06012234 330.94384587 304.28942917 335.81487179 305.51124954 C339.58068482 306.45820582 343.34350831 307.41661422 347.10550117 308.37862396 C348.8999646 308.83631667 350.69525182 309.29079258 352.49137688 309.74192047 C354.99923221 310.37392533 357.50273907 311.0209481 360.00567627 311.67211914 C360.73979233 311.85410355 361.47390839 312.03608795 362.23027039 312.22358704 C368.42418795 313.8642497 372.53047692 315.99573004 376.44132996 321.12538147 C378.86540181 325.86281277 378.66715784 330.69392661 378.63311768 335.91113281 C378.64173325 336.98195099 378.65034882 338.05276917 378.65922546 339.15603638 C378.68186333 342.68345553 378.67514998 346.21007881 378.66607666 349.73754883 C378.67131326 352.19702897 378.67758988 354.65650709 378.68486023 357.11598206 C378.69526054 362.26638246 378.69070805 367.41650652 378.67608643 372.56689453 C378.65890188 379.1588463 378.68239309 385.74992617 378.71757603 392.34178066 C378.73956306 397.41968026 378.73810521 402.49737168 378.72981071 407.57530403 C378.72899188 410.00532042 378.7358422 412.4353522 378.75058174 414.86532402 C378.76805007 418.26655142 378.75346369 421.66621749 378.73077393 425.06738281 C378.74246613 426.06555527 378.75415833 427.06372772 378.76620483 428.09214783 C378.67783336 434.62087601 377.35260689 439.01999611 373.09967041 444.05395508 C366.8019715 449.41369883 360.04024022 448.36719255 352.09967041 448.05395508 C347.42851618 447.66945444 342.80289905 447.08121472 338.16217041 446.42895508 C336.24138672 446.16489868 336.24138672 446.16489868 334.28179932 445.89550781 C283.08031774 438.68656286 233.25712296 424.07472812 187.28326416 400.18041992 C184.81475723 398.90697505 182.33244283 397.66262988 179.84967041 396.41723633 C150.04233789 381.33122295 122.69652783 362.46033107 97.09967041 341.05395508 C96.57292725 340.6135791 96.04618408 340.17320312 95.503479 339.71948242 C78.71437306 325.634662 61.84101713 310.69534827 47.68560791 293.91723633 C45.79775634 291.69924323 43.82264249 289.57153352 41.84967041 287.42895508 C36.26282047 281.22764618 31.17782686 274.67172874 26.09967041 268.05395508 C25.3900415 267.13767334 25.3900415 267.13767334 24.66607666 266.20288086 C4.83769953 240.56435934 -11.37717645 212.97825749 -25.90032959 184.05395508 C-26.30235596 183.25924805 -26.70438232 182.46454102 -27.11859131 181.64575195 C-50.26278259 135.59211913 -75.82897146 65.94120482 -69.90032959 13.05395508 C-68.13516473 7.7584605 -65.25492688 5.2967403 -60.90032959 2.05395508 C-58.55458917 0.88108487 -57.09802398 0.89886269 -54.48138428 0.84863281 C-53.5527507 0.82871277 -52.62411713 0.80879272 -51.66734314 0.78826904 C-50.64594742 0.77153137 -49.6245517 0.7547937 -48.57220459 0.73754883 C-46.96355278 0.70603729 -46.96355278 0.70603729 -45.32240295 0.67388916 C-41.76512594 0.60674466 -38.20778922 0.54806346 -34.65032959 0.49145508 C-33.43747284 0.47160553 -32.22461609 0.45175598 -30.9750061 0.43130493 C-23.2634151 0.3075456 -15.55169585 0.20079546 -7.83972168 0.10400391 C-5.22646207 0.0708032 -2.61322048 0.0361499 0 0 Z " fill="#5F7C8A" transform="translate(101.90032958984375,31.946044921875)"/>
</svg>
